HIERARCHY
ROOT root
{
	OFFSET 0.000000 0.000000 0.000000
	CHANNELS 6 Xposition Yposition Zposition Zrotation Yrotation Xrotation
	JOINT lhip
	{
		OFFSET 0.058581 -0.082280 -0.017664
		CHANNELS 3 Zrotation Yrotation Xrotation
		JOINT lknee
		{
			OFFSET 0.043451 -0.386469 0.008037
			CHANNELS 3 Zrotation Yrotation Xrotation
			JOINT lankle
			{
				OFFSET -0.014790 -0.426874 -0.037428
				CHANNELS 3 Zrotation Yrotation Xrotation
				JOINT ltoe
				{
					OFFSET 0.041054 -0.060286 0.122042
					CHANNELS 3 Zrotation Yrotation Xrotation
					End Site
					{
						OFFSET 0.000000 0.000000 0.000000
					}
				}
			}
		}
	}
	JOINT rhip
	{
		OFFSET -0.060310 -0.090513 -0.013543
		CHANNELS 3 Zrotation Yrotation Xrotation
		JOINT rknee
		{
			OFFSET -0.043257 -0.383688 -0.004843
			CHANNELS 3 Zrotation Yrotation Xrotation
			JOINT rankle
			{
				OFFSET 0.019056 -0.420046 -0.034562
				CHANNELS 3 Zrotation Yrotation Xrotation
				JOINT rtoe
				{
					OFFSET -0.034840 -0.062106 0.130323
					CHANNELS 3 Zrotation Yrotation Xrotation
					End Site
					{
						OFFSET 0.000000 0.000000 0.000000
					}
				}
			}
		}
	}
	JOINT lowerback
	{
		OFFSET 0.004439 0.124404 -0.038385
		CHANNELS 3 Zrotation Yrotation Xrotation
		JOINT upperback
		{
			OFFSET 0.004488 0.137956 0.026820
			CHANNELS 3 Zrotation Yrotation Xrotation
			JOINT chest
			{
				OFFSET -0.002265 0.056032 0.002855
				CHANNELS 3 Zrotation Yrotation Xrotation
				JOINT lowerneck
				{
					OFFSET -0.013390 0.211636 -0.033468
					CHANNELS 3 Zrotation Yrotation Xrotation
					JOINT upperneck
					{
						OFFSET 0.010113 0.088937 0.050410
						CHANNELS 3 Zrotation Yrotation Xrotation
						End Site
						{
							OFFSET 0.000000 0.000000 0.000000
						}
					}
				}
				JOINT lclavicle
				{
					OFFSET 0.071702 0.114000 -0.018898
					CHANNELS 3 Zrotation Yrotation Xrotation
					JOINT lshoulder
					{
						OFFSET 0.122921 0.045205 -0.019046
						CHANNELS 3 Zrotation Yrotation Xrotation
						JOINT lelbow
						{
							OFFSET 0.255332 -0.015649 -0.022946
							CHANNELS 3 Zrotation Yrotation Xrotation
							JOINT lwrist
							{
								OFFSET 0.265709 0.012698 -0.007375
								CHANNELS 3 Zrotation Yrotation Xrotation
								End Site
								{
									OFFSET 0.000000 0.000000 0.000000
								}
							}
						}
					}
				}
				JOINT rclavicle
				{
					OFFSET -0.082954 0.112472 -0.023707
					CHANNELS 3 Zrotation Yrotation Xrotation
					JOINT rshoulder
					{
						OFFSET -0.113228 0.046853 -0.008472
						CHANNELS 3 Zrotation Yrotation Xrotation
						JOINT relbow
						{
							OFFSET -0.260127 -0.014369 -0.031269
							CHANNELS 3 Zrotation Yrotation Xrotation
							JOINT rwrist
							{
								OFFSET -0.269108 0.006794 -0.006027
								CHANNELS 3 Zrotation Yrotation Xrotation
								End Site
								{
									OFFSET 0.000000 0.000000 0.000000
								}
							}
						}
					}
				}
			}
		}
	}
}
MOTION
Frames: 9
Frame Time: 0.033333
1.611213 0.502904 0.997947 0.151499 4.198001 83.632785 3.663262 -1.591275 4.351948 -1.737118 -4.983755 2.748060 6.900476 10.627245 -20.347841 0.000000 -0.000000 0.000000 2.185502 0.517170 3.671896 5.171807 6.624780 2.934742 0.518388 -2.504950 -6.345957 0.000000 -0.000000 0.000000 4.763746 0.843946 -1.153904 1.488049 -2.458833 10.132812 -1.628163 0.729678 -7.319124 2.359710 3.070049 -4.971194 4.137937 1.567581 8.918790 -37.576301 -3.334728 9.391085 -53.013863 -0.925954 10.446933 13.529266 -27.783361 -2.067835 0.591945 -16.929065 -3.696436 32.005991 9.815939 11.500906 52.903736 2.454526 13.324305 -8.922497 23.344090 -0.586004 4.496922 13.641878 -5.624301 
1.610859 0.502391 0.997749 0.069438 4.269276 83.586858 3.792426 -1.574955 4.407344 -1.786000 -4.978592 2.739335 6.970942 10.669901 -20.277861 0.000000 -0.000000 0.000000 2.338046 0.689092 3.735838 5.132049 6.660785 2.923828 0.464162 -2.664406 -6.394785 0.000000 -0.000000 0.000000 4.926645 0.611855 -0.931612 1.150333 -2.228389 9.272791 -1.430178 0.822875 -6.493077 2.544461 3.175672 -5.562969 4.066137 1.326076 9.516420 -37.158534 -3.006637 9.237793 -53.820391 -1.155166 9.853275 14.275075 -27.672297 -2.610444 1.056704 -16.648047 -4.763986 31.730178 9.807795 11.460175 53.318542 2.551448 13.355484 -9.112637 23.522188 -0.231522 4.212334 13.543401 -6.092141 
1.610745 0.502119 0.997686 0.000457 4.275100 83.518224 3.807342 -1.581345 4.495526 -1.784376 -4.942328 2.723221 6.940828 10.712129 -20.275057 0.000000 -0.000000 0.000000 2.373852 0.736803 3.785134 5.115472 6.628768 2.971557 0.466856 -2.628246 -6.436715 0.000000 -0.000000 0.000000 4.990034 0.571365 -0.890729 1.086467 -2.178965 9.162358 -1.459955 0.841152 -6.373566 2.524433 3.198044 -5.558195 4.147365 1.242644 9.532967 -37.096940 -2.740095 9.144324 -54.070995 -1.244487 9.436315 14.694531 -27.460932 -3.414447 1.222423 -16.564283 -5.353892 31.667597 9.721451 11.452033 53.463006 2.637661 13.314479 -9.170172 23.527267 -0.216445 4.195690 13.529271 -6.092901 
1.610752 0.501902 0.997737 -0.049994 4.229850 83.440640 3.723828 -1.653049 4.579391 -1.743433 -4.893625 2.750298 6.994289 10.776366 -20.308947 0.000000 -0.000000 0.000000 2.328072 0.802221 3.871880 5.133177 6.618497 2.982899 0.457923 -2.638543 -6.456098 0.000000 -0.000000 0.000000 5.007781 0.566480 -0.908546 1.038395 -2.158720 9.177929 -1.514711 0.832121 -6.325413 2.594127 3.036402 -5.532462 4.204981 1.089315 9.512652 -37.043705 -2.577415 9.085294 -54.119959 -1.201470 9.171948 14.887268 -27.194136 -4.020091 1.135378 -16.541142 -5.649062 31.636476 9.687125 11.383565 53.561356 2.632558 13.271528 -9.202620 23.502071 -0.295843 4.227928 13.534551 -6.050172 
1.610632 0.501721 0.997757 -0.087546 4.218495 83.395713 3.713181 -1.652456 4.633906 -1.731652 -4.886324 2.762261 6.999696 10.797536 -20.333232 0.000000 -0.000000 0.000000 2.327691 0.839626 3.931846 5.138735 6.613757 2.979370 0.454269 -2.634142 -6.466651 0.000000 -0.000000 0.000000 4.996057 0.568898 -0.939185 1.025589 -2.155923 9.211643 -1.526835 0.824827 -6.322547 2.632919 2.973998 -5.487120 4.223405 1.001559 9.496222 -36.993498 -2.566906 9.124078 -54.113759 -1.109185 9.112321 14.949832 -27.043415 -4.129836 1.161927 -16.549436 -5.632520 31.610515 9.709946 11.387458 53.614469 2.615617 13.238182 -9.203304 23.483434 -0.310408 4.180246 13.541341 -6.070997 
1.610468 0.501481 0.997752 -0.140665 4.213444 83.349560 3.725218 -1.634317 4.683124 -1.737921 -4.878002 2.797322 6.992620 10.822093 -20.370818 0.000000 -0.000000 0.000000 2.333787 0.887644 4.003612 5.152202 6.614557 2.964131 0.459127 -2.635243 -6.478630 0.000000 -0.000000 0.000000 4.988511 0.574131 -0.980842 1.008919 -2.155536 9.237125 -1.540523 0.812135 -6.335936 2.666907 2.905773 -5.422794 4.254248 0.904713 9.498306 -36.923547 -2.590456 9.222712 -54.089457 -0.945278 9.109655 14.998887 -26.855569 -4.069906 1.170254 -16.586923 -5.501961 31.579850 9.757525 11.417512 53.676516 2.579620 13.203672 -9.204461 23.452088 -0.298278 4.103109 13.554590 -6.136445 
1.610345 0.501284 0.997722 -0.181394 4.191333 83.312081 3.791947 -1.631958 4.733611 -1.890025 -4.840882 2.801300 6.983832 10.828522 -20.367518 0.000000 -0.000000 0.000000 2.312316 0.933578 4.070411 5.167421 6.611385 2.939423 0.471841 -2.632968 -6.479034 0.000000 -0.000000 0.000000 4.960221 0.579181 -0.995845 0.992222 -2.142746 9.208254 -1.534041 0.792764 -6.319664 2.694594 2.861909 -5.410950 4.266933 0.835040 9.552609 -36.877469 -2.603004 9.345561 -54.036527 -0.838779 9.092224 14.957513 -26.707804 -3.940907 1.140234 -16.633696 -5.486631 31.563997 9.785830 11.458620 53.702609 2.571828 13.198436 -9.197220 23.423198 -0.267415 4.049265 13.552211 -6.224153 
1.610104 0.500945 0.997769 -0.259717 4.154245 83.257055 3.857123 -1.654754 4.935304 -2.054287 -4.797779 2.573039 6.985619 10.874932 -20.252559 0.000000 -0.000000 0.000000 2.288599 1.010694 4.159861 5.178731 6.609712 2.913373 0.499242 -2.632111 -6.475711 0.000000 -0.000000 0.000000 4.888978 0.580228 -1.006681 0.984786 -2.120951 9.172800 -1.512091 0.785087 -6.319456 2.697112 2.809739 -5.357807 4.286165 0.761087 9.559288 -36.825933 -2.594767 9.481802 -53.961266 -0.713124 9.082815 14.850823 -26.517783 -3.740073 1.074095 -16.674635 -5.440378 31.561351 9.817344 11.501989 53.709904 2.565576 13.214398 -9.176148 23.378425 -0.180351 4.007332 13.533952 -6.243527 
1.609921 0.500742 0.997668 -0.306004 4.162136 83.242080 3.876338 -1.665396 4.953759 -2.050396 -4.785158 2.588256 6.959975 10.920451 -20.244487 0.000000 -0.000000 0.000000 2.310355 1.071031 4.196366 5.190636 6.627225 2.890408 0.510703 -2.659621 -6.479957 0.000000 -0.000000 0.000000 4.896298 0.567133 -1.042458 0.974834 -2.110160 9.110162 -1.523250 0.795407 -6.296492 2.705577 2.759412 -5.345924 4.281011 0.720142 9.614849 -36.767899 -2.531773 9.514971 -53.951491 -0.650018 9.118369 14.739629 -26.325676 -3.489163 0.981367 -16.687680 -5.337160 31.513730 9.790633 11.475262 53.762210 2.580885 13.239655 -9.127265 23.337988 -0.021417 4.020552 13.524255 -6.205484 
